<svg width="32" height="32" viewBox="-7 -93 122 122" fill="#FF8C00" xmlns="http://www.w3.org/2000/svg">
  <path d="M4.60 8.70L4.60 8.70Q1.60 7.10 0.80 5.40Q0 3.70 0 2.50L0 2.50Q0-0.20 1.95-4.75Q3.90-9.30 7.20-15.20Q10.50-21.10 14.70-27.50L14.70-27.50Q11.60-27.70 8.80-27.80Q6-27.90 1.60-27.90L1.60-27.90L0-27.90Q1.40-31.50 4.45-32.95Q7.50-34.40 11.60-34.40L11.60-34.40Q13.30-34.40 15.15-34.20Q17-34 19-33.80L19-33.80Q24-41 28.85-47.40Q33.70-53.80 38.05-58.95Q42.40-64.10 45.80-67.40L45.80-67.40Q50.60-72.20 52.80-72.20L52.80-72.20Q54.20-72.20 55.95-71.10Q57.70-70 59.60-68.30L59.60-68.30Q58.60-67.50 57.05-64.20Q55.50-60.90 53.75-55.85Q52-50.80 50.25-44.80Q48.50-38.80 47.10-32.60Q45.70-26.40 44.85-20.75Q44-15.10 44-10.80L44-10.80Q44-6.80 44.80-4.85Q45.60-2.90 47.50-2.90L47.50-2.90Q49.80-2.90 53.20-6.40Q56.60-9.90 60.80-17.80L60.80-17.80L62.60-15.90Q59.50-7.70 54.55-2.40Q49.60 2.90 44 2.90L44 2.90Q39.20 2.90 37.20-1.25Q35.20-5.40 35.20-12.60L35.20-12.60Q35.20-14.90 35.50-17.80Q35.80-20.70 36.50-25L36.50-25Q32.10-25.70 28.70-26.10Q25.30-26.50 22.20-26.90L22.20-26.90Q17.40-18.40 12.90-9.30Q8.40-0.20 4.60 8.70ZM37.50-29.90L37.50-29.90Q38.80-35.80 40.55-41.85Q42.30-47.90 44.25-53.45Q46.20-59 48.10-63.40L48.10-63.40Q45.10-61 41.40-56.50Q37.70-52 33.65-45.90Q29.60-39.80 25.40-32.60L25.40-32.60Q28.40-32 31.40-31.30Q34.40-30.60 37.50-29.90ZM89.70 3.80L89.70 3.80Q86.60 3.80 84.30 1.80Q82-0.20 80.60-3.20Q79.20-6.20 78.50-9.35Q77.80-12.50 77.80-14.80L77.80-14.80Q79.20-15.10 81.30-15.70Q83.40-16.30 85.60-17.35Q87.80-18.40 89.25-19.95Q90.70-21.50 90.70-23.70L90.70-23.70Q90.70-25.50 89.55-26.60Q88.40-27.70 86.30-27.70L86.30-27.70Q83.50-27.70 81-25.85Q78.50-24 76.35-21Q74.20-18 72.45-14.50Q70.70-11 69.35-7.70Q68-4.40 67.10-2L67.10-2Q66 1 65 2.05Q64 3.10 62.10 3.10L62.10 3.10Q61.40 3.10 60.45 2.70Q59.50 2.30 58.85 0.70Q58.20-0.90 58.20-4.40L58.20-4.40Q58.20-10.50 59.90-17.80Q61.60-25.10 64.45-32.65Q67.30-40.20 70.70-47.10Q74.10-54 77.60-59.50Q81.10-65 84.15-68.20Q87.20-71.40 89.20-71.40L89.20-71.40Q90.90-71.40 92.05-69.35Q93.20-67.30 93.20-64.10L93.20-64.10Q93.20-60.70 91.70-56.55Q90.20-52.40 87.45-48.15Q84.70-43.90 80.90-40.10Q77.10-36.30 72.50-33.60L72.50-33.60Q69.70-27.10 68.20-20.75Q66.70-14.40 66.30-9.50L66.30-9.50Q68.10-13.60 70.40-17.90Q72.70-22.20 75.50-25.95Q78.30-29.70 81.55-32Q84.80-34.30 88.50-34.30L88.50-34.30Q92.50-34.30 95.50-31.50Q98.50-28.70 98.50-24.50L98.50-24.50Q98.50-21.50 96.90-19.30Q95.30-17.10 92.95-15.65Q90.60-14.20 88.20-13.50Q85.80-12.80 84.10-12.70L84.10-12.70Q84.40-11.40 84.95-9.40Q85.50-7.40 86.40-5.50Q87.30-3.60 88.70-2.30Q90.10-1 92-1L92-1Q94.50-1 97.15-3.30Q99.80-5.60 102.35-9.40Q104.90-13.20 106.90-17.80L106.90-17.80L108.30-16.10Q106.60-11.10 103.65-6.50Q100.70-1.90 97.10 0.95Q93.50 3.80 89.70 3.80ZM75.40-40.40L75.40-40.40Q78.10-42.80 81.10-46.35Q84.10-49.90 86.25-53.95Q88.40-58 88.50-61.70L88.50-61.70Q88.50-61.80 88.50-61.85Q88.50-61.90 88.50-62L88.50-62Q87.50-61.60 85.35-58.55Q83.20-55.50 80.60-50.80Q78-46.10 75.40-40.40Z" />
</svg>
